<svg width="262" height="87" viewBox="0 0 262 87" fill="none" xmlns="http://www.w3.org/2000/svg">
<path d="M8.52344 6.625H18.7285V9.1543H11.5117V12.4648H17.8301V14.9648H11.5117V21H8.52344V6.625ZM23.3867 9.08594H20.5645V6.51758H23.3867V9.08594ZM20.5645 10.3555H23.3867V21H20.5645V10.3555ZM28.9336 21H26.1504V6.60547H28.9336V21ZM30.5645 12.4355V10.4531H32.0488V7.48438H34.8027V10.4531H36.5312V12.4355H34.8027V18.0605C34.8027 18.4967 34.8581 18.7702 34.9688 18.8809C35.0794 18.985 35.418 19.0371 35.9844 19.0371C36.069 19.0371 36.1569 19.0371 36.248 19.0371C36.3457 19.0306 36.4401 19.0241 36.5312 19.0176V21.0977L35.2129 21.1465C33.8978 21.1921 32.9993 20.9642 32.5176 20.4629C32.2051 20.1439 32.0488 19.6523 32.0488 18.9883V12.4355H30.5645ZM42.5176 12.3672C41.873 12.3672 41.3717 12.569 41.0137 12.9727C40.6621 13.3763 40.4408 13.9232 40.3496 14.6133H44.6758C44.6302 13.8776 44.4056 13.321 44.002 12.9434C43.6048 12.5592 43.11 12.3672 42.5176 12.3672ZM42.5176 10.0723C43.403 10.0723 44.2005 10.2383 44.9102 10.5703C45.6198 10.9023 46.2057 11.4264 46.668 12.1426C47.0846 12.7741 47.3548 13.5065 47.4785 14.3398C47.5501 14.8281 47.5794 15.5312 47.5664 16.4492H40.2812C40.3203 17.5169 40.6556 18.2656 41.2871 18.6953C41.6712 18.9622 42.1335 19.0957 42.6738 19.0957C43.2467 19.0957 43.7122 18.9329 44.0703 18.6074C44.2656 18.4316 44.4382 18.1875 44.5879 17.875H47.4297C47.3581 18.5065 47.0293 19.1478 46.4434 19.7988C45.5319 20.834 44.2559 21.3516 42.6152 21.3516C41.2611 21.3516 40.0664 20.9154 39.0312 20.043C37.9961 19.1706 37.4785 17.7513 37.4785 15.7852C37.4785 13.9427 37.944 12.5299 38.875 11.5469C39.8125 10.5638 41.0267 10.0723 42.5176 10.0723ZM55.2324 10.1016C55.2845 10.1016 55.3268 10.1048 55.3594 10.1113C55.3984 10.1113 55.4798 10.1146 55.6035 10.1211V12.9727C55.4277 12.9531 55.2715 12.9401 55.1348 12.9336C54.998 12.9271 54.8874 12.9238 54.8027 12.9238C53.6829 12.9238 52.931 13.2884 52.5469 14.0176C52.332 14.4277 52.2246 15.0592 52.2246 15.9121V21H49.4219V10.3555H52.0781V12.2109C52.5078 11.5013 52.8822 11.0163 53.2012 10.7559C53.722 10.3197 54.3991 10.1016 55.2324 10.1016ZM65.9551 9.10547V12.2793H69.4902C70.1217 12.2793 70.6328 12.1621 71.0234 11.9277C71.4206 11.6868 71.6191 11.2637 71.6191 10.6582C71.6191 9.98763 71.3587 9.54492 70.8379 9.33008C70.3887 9.18034 69.8158 9.10547 69.1191 9.10547H65.9551ZM65.9551 14.6621V18.5H69.4902C70.1217 18.5 70.6133 18.4154 70.9648 18.2461C71.6029 17.9336 71.9219 17.3346 71.9219 16.4492C71.9219 15.7005 71.6126 15.1862 70.9941 14.9062C70.6491 14.75 70.1641 14.6686 69.5391 14.6621H65.9551ZM70.0762 6.60547C71.8405 6.63151 73.0905 7.14258 73.8262 8.13867C74.2689 8.75065 74.4902 9.48307 74.4902 10.3359C74.4902 11.2148 74.2689 11.9212 73.8262 12.4551C73.5788 12.7546 73.2142 13.028 72.7324 13.2754C73.4681 13.5423 74.0215 13.9655 74.3926 14.5449C74.7702 15.1243 74.959 15.8275 74.959 16.6543C74.959 17.5072 74.7441 18.2721 74.3145 18.9492C74.041 19.3984 73.6992 19.776 73.2891 20.082C72.8268 20.4336 72.2799 20.6745 71.6484 20.8047C71.0234 20.9349 70.3431 21 69.6074 21H63.084V6.60547H70.0762ZM77.6934 23.041L78.0449 23.0605C78.3184 23.0736 78.5788 23.0638 78.8262 23.0312C79.0736 22.9987 79.2819 22.9238 79.4512 22.8066C79.6139 22.696 79.7637 22.4648 79.9004 22.1133C80.0436 21.7617 80.1022 21.5469 80.0762 21.4688L76.1699 10.3555H79.2656L81.5898 18.207L83.7871 10.3555H86.7461L83.0938 20.8242C82.3906 22.8424 81.834 24.0924 81.4238 24.5742C81.0137 25.0625 80.1934 25.3066 78.9629 25.3066C78.7155 25.3066 78.5169 25.3034 78.3672 25.2969C78.2174 25.2969 77.9928 25.2871 77.6934 25.2676V23.041ZM102.293 11.1855C102.293 10.4368 102.094 9.90299 101.697 9.58398C101.307 9.26497 100.757 9.10547 100.047 9.10547H97.2441V13.3438H100.047C100.757 13.3438 101.307 13.1712 101.697 12.8262C102.094 12.4811 102.293 11.9342 102.293 11.1855ZM105.271 11.166C105.271 12.8652 104.842 14.0664 103.982 14.7695C103.123 15.4727 101.896 15.8242 100.301 15.8242H97.2441V21H94.2559V6.60547H100.525C101.971 6.60547 103.123 6.97656 103.982 7.71875C104.842 8.46094 105.271 9.61003 105.271 11.166ZM113.084 10.1016C113.136 10.1016 113.178 10.1048 113.211 10.1113C113.25 10.1113 113.331 10.1146 113.455 10.1211V12.9727C113.279 12.9531 113.123 12.9401 112.986 12.9336C112.85 12.9271 112.739 12.9238 112.654 12.9238C111.535 12.9238 110.783 13.2884 110.398 14.0176C110.184 14.4277 110.076 15.0592 110.076 15.9121V21H107.273V10.3555H109.93V12.2109C110.359 11.5013 110.734 11.0163 111.053 10.7559C111.574 10.3197 112.251 10.1016 113.084 10.1016ZM117.957 9.08594H115.135V6.51758H117.957V9.08594ZM115.135 10.3555H117.957V21H115.135V10.3555ZM127.02 14.1738C126.967 13.7767 126.834 13.4186 126.619 13.0996C126.307 12.6699 125.822 12.4551 125.164 12.4551C124.227 12.4551 123.585 12.9206 123.24 13.8516C123.058 14.3464 122.967 15.0039 122.967 15.8242C122.967 16.6055 123.058 17.2337 123.24 17.709C123.572 18.5944 124.197 19.0371 125.115 19.0371C125.766 19.0371 126.229 18.8613 126.502 18.5098C126.775 18.1582 126.941 17.7025 127 17.1426H129.842C129.777 17.9889 129.471 18.7897 128.924 19.5449C128.051 20.7624 126.759 21.3711 125.047 21.3711C123.335 21.3711 122.075 20.8633 121.268 19.8477C120.46 18.832 120.057 17.5137 120.057 15.8926C120.057 14.0632 120.503 12.6406 121.395 11.625C122.286 10.6094 123.517 10.1016 125.086 10.1016C126.421 10.1016 127.511 10.401 128.357 11C129.21 11.599 129.715 12.6569 129.871 14.1738H127.02ZM135.994 12.3672C135.35 12.3672 134.848 12.569 134.49 12.9727C134.139 13.3763 133.917 13.9232 133.826 14.6133H138.152C138.107 13.8776 137.882 13.321 137.479 12.9434C137.081 12.5592 136.587 12.3672 135.994 12.3672ZM135.994 10.0723C136.88 10.0723 137.677 10.2383 138.387 10.5703C139.096 10.9023 139.682 11.4264 140.145 12.1426C140.561 12.7741 140.831 13.5065 140.955 14.3398C141.027 14.8281 141.056 15.5312 141.043 16.4492H133.758C133.797 17.5169 134.132 18.2656 134.764 18.6953C135.148 18.9622 135.61 19.0957 136.15 19.0957C136.723 19.0957 137.189 18.9329 137.547 18.6074C137.742 18.4316 137.915 18.1875 138.064 17.875H140.906C140.835 18.5065 140.506 19.1478 139.92 19.7988C139.008 20.834 137.732 21.3516 136.092 21.3516C134.738 21.3516 133.543 20.9154 132.508 20.043C131.473 19.1706 130.955 17.7513 130.955 15.7852C130.955 13.9427 131.421 12.5299 132.352 11.5469C133.289 10.5638 134.503 10.0723 135.994 10.0723Z" fill="#333333"/>
<path opacity="0.61" d="M10.4091 81V69.3636H17.3864V70.6136H11.8182V74.5455H16.8636V75.7955H11.8182V81H10.4091ZM19.5241 81V72.2727H20.8196V73.5909H20.9105C21.0696 73.1591 21.3575 72.8087 21.7741 72.5398C22.1908 72.2708 22.6605 72.1364 23.1832 72.1364C23.2817 72.1364 23.4048 72.1383 23.5526 72.142C23.7003 72.1458 23.812 72.1515 23.8878 72.1591V73.5227C23.8423 73.5114 23.7382 73.4943 23.5753 73.4716C23.4162 73.4451 23.2476 73.4318 23.0696 73.4318C22.6454 73.4318 22.2666 73.5208 21.9332 73.6989C21.6037 73.8731 21.3423 74.1155 21.1491 74.4261C20.9598 74.733 20.8651 75.0833 20.8651 75.4773V81H19.5241ZM28.7571 81.1818C27.9692 81.1818 27.2779 80.9943 26.6832 80.6193C26.0923 80.2443 25.6302 79.7197 25.2969 79.0455C24.9673 78.3712 24.8026 77.5833 24.8026 76.6818C24.8026 75.7727 24.9673 74.9792 25.2969 74.3011C25.6302 73.6231 26.0923 73.0966 26.6832 72.7216C27.2779 72.3466 27.9692 72.1591 28.7571 72.1591C29.545 72.1591 30.2344 72.3466 30.8253 72.7216C31.42 73.0966 31.8821 73.6231 32.2116 74.3011C32.545 74.9792 32.7116 75.7727 32.7116 76.6818C32.7116 77.5833 32.545 78.3712 32.2116 79.0455C31.8821 79.7197 31.42 80.2443 30.8253 80.6193C30.2344 80.9943 29.545 81.1818 28.7571 81.1818ZM28.7571 79.9773C29.3556 79.9773 29.848 79.8239 30.2344 79.517C30.6207 79.2102 30.9067 78.8068 31.0923 78.3068C31.2779 77.8068 31.3707 77.2652 31.3707 76.6818C31.3707 76.0985 31.2779 75.5549 31.0923 75.0511C30.9067 74.5473 30.6207 74.1402 30.2344 73.8295C29.848 73.5189 29.3556 73.3636 28.7571 73.3636C28.1586 73.3636 27.6662 73.5189 27.2798 73.8295C26.8935 74.1402 26.6075 74.5473 26.4219 75.0511C26.2363 75.5549 26.1435 76.0985 26.1435 76.6818C26.1435 77.2652 26.2363 77.8068 26.4219 78.3068C26.6075 78.8068 26.8935 79.2102 27.2798 79.517C27.6662 79.8239 28.1586 79.9773 28.7571 79.9773ZM34.7585 81V72.2727H36.054V73.6364H36.1676C36.3494 73.1705 36.643 72.8087 37.0483 72.5511C37.4536 72.2898 37.9403 72.1591 38.5085 72.1591C39.0843 72.1591 39.5634 72.2898 39.946 72.5511C40.3324 72.8087 40.6335 73.1705 40.8494 73.6364H40.9403C41.1638 73.1856 41.4991 72.8277 41.946 72.5625C42.393 72.2936 42.929 72.1591 43.554 72.1591C44.3343 72.1591 44.9725 72.4034 45.4688 72.892C45.965 73.3769 46.2131 74.1326 46.2131 75.1591V81H44.8722V75.1591C44.8722 74.5152 44.696 74.0549 44.3438 73.7784C43.9915 73.5019 43.5767 73.3636 43.0994 73.3636C42.4858 73.3636 42.0104 73.5492 41.6733 73.9205C41.3362 74.2879 41.1676 74.7538 41.1676 75.3182V81H39.804V75.0227C39.804 74.5265 39.643 74.1269 39.321 73.8239C38.9991 73.517 38.5843 73.3636 38.0767 73.3636C37.7282 73.3636 37.4025 73.4564 37.0994 73.642C36.8002 73.8277 36.5578 74.0852 36.3722 74.4148C36.1903 74.7405 36.0994 75.1174 36.0994 75.5455V81H34.7585ZM56.5739 82.4545V67.9091H57.5057V82.4545H56.5739ZM59.7102 72.2727C59.642 71.697 59.3655 71.25 58.8807 70.9318C58.3958 70.6136 57.8011 70.4545 57.0966 70.4545C56.5814 70.4545 56.1307 70.5379 55.7443 70.7045C55.3617 70.8712 55.0625 71.1004 54.8466 71.392C54.6345 71.6837 54.5284 72.0152 54.5284 72.3864C54.5284 72.697 54.6023 72.964 54.75 73.1875C54.9015 73.4072 55.0947 73.5909 55.3295 73.7386C55.5644 73.8826 55.8106 74.0019 56.0682 74.0966C56.3258 74.1875 56.5625 74.2614 56.7784 74.3182L57.9602 74.6364C58.2633 74.7159 58.6004 74.8258 58.9716 74.9659C59.3466 75.1061 59.7045 75.2973 60.0455 75.5398C60.3902 75.7784 60.6742 76.0852 60.8977 76.4602C61.1212 76.8352 61.233 77.2955 61.233 77.8409C61.233 78.4697 61.0682 79.0379 60.7386 79.5455C60.4129 80.053 59.9356 80.4564 59.3068 80.7557C58.6818 81.0549 57.9223 81.2045 57.0284 81.2045C56.1951 81.2045 55.4735 81.0701 54.8636 80.8011C54.2576 80.5322 53.7803 80.1572 53.4318 79.6761C53.0871 79.1951 52.892 78.6364 52.8466 78H54.3011C54.339 78.4394 54.4867 78.803 54.7443 79.0909C55.0057 79.375 55.3352 79.5871 55.733 79.7273C56.1345 79.8636 56.5663 79.9318 57.0284 79.9318C57.5663 79.9318 58.0492 79.8447 58.4773 79.6705C58.9053 79.4924 59.2443 79.2462 59.4943 78.9318C59.7443 78.6136 59.8693 78.2424 59.8693 77.8182C59.8693 77.4318 59.7614 77.1174 59.5455 76.875C59.3295 76.6326 59.0455 76.4356 58.6932 76.2841C58.3409 76.1326 57.9602 76 57.5511 75.8864L56.1193 75.4773C55.2102 75.2159 54.4905 74.8428 53.9602 74.358C53.4299 73.8731 53.1648 73.2386 53.1648 72.4545C53.1648 71.803 53.3409 71.2348 53.6932 70.75C54.0492 70.2614 54.5265 69.8826 55.125 69.6136C55.7273 69.3409 56.3996 69.2045 57.142 69.2045C57.892 69.2045 58.5587 69.339 59.142 69.608C59.7254 69.8731 60.1875 70.2367 60.5284 70.6989C60.8731 71.161 61.0549 71.6856 61.0739 72.2727H59.7102ZM67.1406 81.1591C66.2846 81.1591 65.5554 80.9261 64.9531 80.4602C64.3509 79.9905 63.8906 79.3106 63.5724 78.4205C63.2543 77.5265 63.0952 76.447 63.0952 75.1818C63.0952 73.9242 63.2543 72.8504 63.5724 71.9602C63.8944 71.0663 64.3565 70.3845 64.9588 69.9148C65.5649 69.4413 66.2921 69.2045 67.1406 69.2045C67.9891 69.2045 68.7145 69.4413 69.3168 69.9148C69.9228 70.3845 70.3849 71.0663 70.7031 71.9602C71.0251 72.8504 71.1861 73.9242 71.1861 75.1818C71.1861 76.447 71.027 77.5265 70.7088 78.4205C70.3906 79.3106 69.9304 79.9905 69.3281 80.4602C68.7259 80.9261 67.9967 81.1591 67.1406 81.1591ZM67.1406 79.9091C67.9891 79.9091 68.6482 79.5 69.1179 78.6818C69.5876 77.8636 69.8224 76.697 69.8224 75.1818C69.8224 74.1742 69.7145 73.3163 69.4986 72.608C69.2865 71.8996 68.9796 71.3598 68.5781 70.9886C68.1804 70.6174 67.7012 70.4318 67.1406 70.4318C66.2997 70.4318 65.6425 70.8466 65.169 71.6761C64.6955 72.5019 64.4588 73.6705 64.4588 75.1818C64.4588 76.1894 64.5649 77.0455 64.777 77.75C64.9891 78.4545 65.294 78.9905 65.6918 79.358C66.0933 79.7254 66.5762 79.9091 67.1406 79.9091ZM81.6634 72.2727V73.4091H77.1406V72.2727H81.6634ZM78.4588 70.1818H79.7997V78.5C79.7997 78.8788 79.8546 79.1629 79.9645 79.3523C80.0781 79.5379 80.2221 79.6629 80.3963 79.7273C80.5743 79.7879 80.7618 79.8182 80.9588 79.8182C81.1065 79.8182 81.2277 79.8106 81.3224 79.7955C81.4171 79.7765 81.4929 79.7614 81.5497 79.75L81.8224 80.9545C81.7315 80.9886 81.6046 81.0227 81.4418 81.0568C81.2789 81.0947 81.0724 81.1136 80.8224 81.1136C80.4437 81.1136 80.0724 81.0322 79.7088 80.8693C79.349 80.7064 79.0497 80.4583 78.8111 80.125C78.5762 79.7917 78.4588 79.3712 78.4588 78.8636V70.1818ZM87.1321 81.1818C86.3442 81.1818 85.6529 80.9943 85.0582 80.6193C84.4673 80.2443 84.0052 79.7197 83.6719 79.0455C83.3423 78.3712 83.1776 77.5833 83.1776 76.6818C83.1776 75.7727 83.3423 74.9792 83.6719 74.3011C84.0052 73.6231 84.4673 73.0966 85.0582 72.7216C85.6529 72.3466 86.3442 72.1591 87.1321 72.1591C87.92 72.1591 88.6094 72.3466 89.2003 72.7216C89.795 73.0966 90.2571 73.6231 90.5866 74.3011C90.92 74.9792 91.0866 75.7727 91.0866 76.6818C91.0866 77.5833 90.92 78.3712 90.5866 79.0455C90.2571 79.7197 89.795 80.2443 89.2003 80.6193C88.6094 80.9943 87.92 81.1818 87.1321 81.1818ZM87.1321 79.9773C87.7306 79.9773 88.223 79.8239 88.6094 79.517C88.9957 79.2102 89.2817 78.8068 89.4673 78.3068C89.6529 77.8068 89.7457 77.2652 89.7457 76.6818C89.7457 76.0985 89.6529 75.5549 89.4673 75.0511C89.2817 74.5473 88.9957 74.1402 88.6094 73.8295C88.223 73.5189 87.7306 73.3636 87.1321 73.3636C86.5336 73.3636 86.0412 73.5189 85.6548 73.8295C85.2685 74.1402 84.9825 74.5473 84.7969 75.0511C84.6113 75.5549 84.5185 76.0985 84.5185 76.6818C84.5185 77.2652 84.6113 77.8068 84.7969 78.3068C84.9825 78.8068 85.2685 79.2102 85.6548 79.517C86.0412 79.8239 86.5336 79.9773 87.1321 79.9773ZM101.043 82.4545V67.9091H101.974V82.4545H101.043ZM104.179 72.2727C104.111 71.697 103.834 71.25 103.349 70.9318C102.865 70.6136 102.27 70.4545 101.565 70.4545C101.05 70.4545 100.599 70.5379 100.213 70.7045C99.8305 70.8712 99.5313 71.1004 99.3153 71.392C99.1032 71.6837 98.9972 72.0152 98.9972 72.3864C98.9972 72.697 99.071 72.964 99.2188 73.1875C99.3703 73.4072 99.5634 73.5909 99.7983 73.7386C100.033 73.8826 100.279 74.0019 100.537 74.0966C100.795 74.1875 101.031 74.2614 101.247 74.3182L102.429 74.6364C102.732 74.7159 103.069 74.8258 103.44 74.9659C103.815 75.1061 104.173 75.2973 104.514 75.5398C104.859 75.7784 105.143 76.0852 105.366 76.4602C105.59 76.8352 105.702 77.2955 105.702 77.8409C105.702 78.4697 105.537 79.0379 105.207 79.5455C104.882 80.053 104.404 80.4564 103.776 80.7557C103.151 81.0549 102.391 81.2045 101.497 81.2045C100.664 81.2045 99.9422 81.0701 99.3324 80.8011C98.7263 80.5322 98.2491 80.1572 97.9006 79.6761C97.5559 79.1951 97.3608 78.6364 97.3153 78H98.7699C98.8078 78.4394 98.9555 78.803 99.2131 79.0909C99.4744 79.375 99.804 79.5871 100.202 79.7273C100.603 79.8636 101.035 79.9318 101.497 79.9318C102.035 79.9318 102.518 79.8447 102.946 79.6705C103.374 79.4924 103.713 79.2462 103.963 78.9318C104.213 78.6136 104.338 78.2424 104.338 77.8182C104.338 77.4318 104.23 77.1174 104.014 76.875C103.798 76.6326 103.514 76.4356 103.162 76.2841C102.81 76.1326 102.429 76 102.02 75.8864L100.588 75.4773C99.679 75.2159 98.9593 74.8428 98.429 74.358C97.8987 73.8731 97.6335 73.2386 97.6335 72.4545C97.6335 71.803 97.8097 71.2348 98.1619 70.75C98.518 70.2614 98.9953 69.8826 99.5938 69.6136C100.196 69.3409 100.868 69.2045 101.611 69.2045C102.361 69.2045 103.027 69.339 103.611 69.608C104.194 69.8731 104.656 70.2367 104.997 70.6989C105.342 71.161 105.524 71.6856 105.543 72.2727H104.179ZM111.541 81.1591C110.761 81.1591 110.071 81.0208 109.473 80.7443C108.878 80.464 108.414 80.0795 108.081 79.5909C107.748 79.0985 107.583 78.5379 107.587 77.9091C107.583 77.4167 107.679 76.9621 107.876 76.5455C108.073 76.125 108.342 75.7746 108.683 75.4943C109.028 75.2102 109.412 75.0303 109.837 74.9545V74.8864C109.28 74.7424 108.837 74.4299 108.507 73.9489C108.178 73.464 108.015 72.9129 108.018 72.2955C108.015 71.7045 108.164 71.1761 108.467 70.7102C108.77 70.2443 109.187 69.8769 109.717 69.608C110.251 69.339 110.859 69.2045 111.541 69.2045C112.215 69.2045 112.818 69.339 113.348 69.608C113.878 69.8769 114.295 70.2443 114.598 70.7102C114.905 71.1761 115.06 71.7045 115.064 72.2955C115.06 72.9129 114.892 73.464 114.558 73.9489C114.229 74.4299 113.791 74.7424 113.246 74.8864V74.9545C113.666 75.0303 114.045 75.2102 114.382 75.4943C114.719 75.7746 114.988 76.125 115.189 76.5455C115.39 76.9621 115.492 77.4167 115.496 77.9091C115.492 78.5379 115.321 79.0985 114.984 79.5909C114.651 80.0795 114.187 80.464 113.592 80.7443C113.001 81.0208 112.318 81.1591 111.541 81.1591ZM111.541 79.9091C112.068 79.9091 112.522 79.8239 112.905 79.6534C113.287 79.483 113.583 79.2424 113.791 78.9318C114 78.6212 114.106 78.2576 114.109 77.8409C114.106 77.4015 113.992 77.0133 113.768 76.6761C113.545 76.339 113.24 76.0739 112.854 75.8807C112.471 75.6875 112.034 75.5909 111.541 75.5909C111.045 75.5909 110.602 75.6875 110.212 75.8807C109.825 76.0739 109.52 76.339 109.297 76.6761C109.077 77.0133 108.969 77.4015 108.973 77.8409C108.969 78.2576 109.07 78.6212 109.274 78.9318C109.482 79.2424 109.78 79.483 110.166 79.6534C110.553 79.8239 111.011 79.9091 111.541 79.9091ZM111.541 74.3864C111.958 74.3864 112.327 74.303 112.649 74.1364C112.975 73.9697 113.231 73.7367 113.416 73.4375C113.602 73.1383 113.696 72.7879 113.7 72.3864C113.696 71.9924 113.604 71.6496 113.422 71.358C113.24 71.0625 112.988 70.8352 112.666 70.6761C112.344 70.5133 111.969 70.4318 111.541 70.4318C111.106 70.4318 110.725 70.5133 110.399 70.6761C110.073 70.8352 109.821 71.0625 109.643 71.358C109.465 71.6496 109.378 71.9924 109.382 72.3864C109.378 72.7879 109.467 73.1383 109.649 73.4375C109.835 73.7367 110.09 73.9697 110.416 74.1364C110.742 74.303 111.117 74.3864 111.541 74.3864ZM121.469 81.1591C120.613 81.1591 119.884 80.9261 119.281 80.4602C118.679 79.9905 118.219 79.3106 117.901 78.4205C117.582 77.5265 117.423 76.447 117.423 75.1818C117.423 73.9242 117.582 72.8504 117.901 71.9602C118.223 71.0663 118.685 70.3845 119.287 69.9148C119.893 69.4413 120.62 69.2045 121.469 69.2045C122.317 69.2045 123.043 69.4413 123.645 69.9148C124.251 70.3845 124.713 71.0663 125.031 71.9602C125.353 72.8504 125.514 73.9242 125.514 75.1818C125.514 76.447 125.355 77.5265 125.037 78.4205C124.719 79.3106 124.259 79.9905 123.656 80.4602C123.054 80.9261 122.325 81.1591 121.469 81.1591ZM121.469 79.9091C122.317 79.9091 122.976 79.5 123.446 78.6818C123.916 77.8636 124.151 76.697 124.151 75.1818C124.151 74.1742 124.043 73.3163 123.827 72.608C123.615 71.8996 123.308 71.3598 122.906 70.9886C122.509 70.6174 122.029 70.4318 121.469 70.4318C120.628 70.4318 119.971 70.8466 119.497 71.6761C119.024 72.5019 118.787 73.6705 118.787 75.1818C118.787 76.1894 118.893 77.0455 119.105 77.75C119.317 78.4545 119.622 78.9905 120.02 79.358C120.421 79.7254 120.904 79.9091 121.469 79.9091ZM131.469 81.1591C130.613 81.1591 129.884 80.9261 129.281 80.4602C128.679 79.9905 128.219 79.3106 127.901 78.4205C127.582 77.5265 127.423 76.447 127.423 75.1818C127.423 73.9242 127.582 72.8504 127.901 71.9602C128.223 71.0663 128.685 70.3845 129.287 69.9148C129.893 69.4413 130.62 69.2045 131.469 69.2045C132.317 69.2045 133.043 69.4413 133.645 69.9148C134.251 70.3845 134.713 71.0663 135.031 71.9602C135.353 72.8504 135.514 73.9242 135.514 75.1818C135.514 76.447 135.355 77.5265 135.037 78.4205C134.719 79.3106 134.259 79.9905 133.656 80.4602C133.054 80.9261 132.325 81.1591 131.469 81.1591ZM131.469 79.9091C132.317 79.9091 132.976 79.5 133.446 78.6818C133.916 77.8636 134.151 76.697 134.151 75.1818C134.151 74.1742 134.043 73.3163 133.827 72.608C133.615 71.8996 133.308 71.3598 132.906 70.9886C132.509 70.6174 132.029 70.4318 131.469 70.4318C130.628 70.4318 129.971 70.8466 129.497 71.6761C129.024 72.5019 128.787 73.6705 128.787 75.1818C128.787 76.1894 128.893 77.0455 129.105 77.75C129.317 78.4545 129.622 78.9905 130.02 79.358C130.421 79.7254 130.904 79.9091 131.469 79.9091ZM141.469 81.1591C140.613 81.1591 139.884 80.9261 139.281 80.4602C138.679 79.9905 138.219 79.3106 137.901 78.4205C137.582 77.5265 137.423 76.447 137.423 75.1818C137.423 73.9242 137.582 72.8504 137.901 71.9602C138.223 71.0663 138.685 70.3845 139.287 69.9148C139.893 69.4413 140.62 69.2045 141.469 69.2045C142.317 69.2045 143.043 69.4413 143.645 69.9148C144.251 70.3845 144.713 71.0663 145.031 71.9602C145.353 72.8504 145.514 73.9242 145.514 75.1818C145.514 76.447 145.355 77.5265 145.037 78.4205C144.719 79.3106 144.259 79.9905 143.656 80.4602C143.054 80.9261 142.325 81.1591 141.469 81.1591ZM141.469 79.9091C142.317 79.9091 142.976 79.5 143.446 78.6818C143.916 77.8636 144.151 76.697 144.151 75.1818C144.151 74.1742 144.043 73.3163 143.827 72.608C143.615 71.8996 143.308 71.3598 142.906 70.9886C142.509 70.6174 142.029 70.4318 141.469 70.4318C140.628 70.4318 139.971 70.8466 139.497 71.6761C139.024 72.5019 138.787 73.6705 138.787 75.1818C138.787 76.1894 138.893 77.0455 139.105 77.75C139.317 78.4545 139.622 78.9905 140.02 79.358C140.421 79.7254 140.904 79.9091 141.469 79.9091Z" fill="#1E1E1E"/>
<path opacity="0.61" d="M218.409 81V69.3636H225.386V70.6136H219.818V74.5455H224.864V75.7955H219.818V81H218.409ZM227.618 81V72.2727H228.959V81H227.618ZM228.3 70.8182C228.038 70.8182 227.813 70.7292 227.624 70.5511C227.438 70.3731 227.345 70.1591 227.345 69.9091C227.345 69.6591 227.438 69.4451 227.624 69.267C227.813 69.089 228.038 69 228.3 69C228.561 69 228.785 69.089 228.97 69.267C229.16 69.4451 229.254 69.6591 229.254 69.9091C229.254 70.1591 229.16 70.3731 228.97 70.5511C228.785 70.7292 228.561 70.8182 228.3 70.8182ZM232.756 69.3636V81H231.415V69.3636H232.756ZM239.007 72.2727V73.4091H234.484V72.2727H239.007ZM235.803 70.1818H237.143V78.5C237.143 78.8788 237.198 79.1629 237.308 79.3523C237.422 79.5379 237.566 79.6629 237.74 79.7273C237.918 79.7879 238.106 79.8182 238.303 79.8182C238.45 79.8182 238.571 79.8106 238.666 79.7955C238.761 79.7765 238.837 79.7614 238.893 79.75L239.166 80.9545C239.075 80.9886 238.948 81.0227 238.786 81.0568C238.623 81.0947 238.416 81.1136 238.166 81.1136C237.787 81.1136 237.416 81.0322 237.053 80.8693C236.693 80.7064 236.393 80.4583 236.155 80.125C235.92 79.7917 235.803 79.3712 235.803 78.8636V70.1818ZM244.589 81.1818C243.749 81.1818 243.023 80.9962 242.413 80.625C241.807 80.25 241.339 79.7273 241.01 79.0568C240.684 78.3826 240.521 77.5985 240.521 76.7045C240.521 75.8106 240.684 75.0227 241.01 74.3409C241.339 73.6553 241.798 73.1212 242.385 72.7386C242.976 72.3523 243.665 72.1591 244.453 72.1591C244.908 72.1591 245.357 72.2348 245.8 72.3864C246.243 72.5379 246.646 72.7841 247.01 73.125C247.374 73.4621 247.663 73.9091 247.879 74.4659C248.095 75.0227 248.203 75.7083 248.203 76.5227V77.0909H241.476V75.9318H246.839C246.839 75.4394 246.741 75 246.544 74.6136C246.351 74.2273 246.074 73.9223 245.714 73.6989C245.358 73.4754 244.938 73.3636 244.453 73.3636C243.919 73.3636 243.457 73.4962 243.067 73.7614C242.68 74.0227 242.383 74.3636 242.175 74.7841C241.966 75.2045 241.862 75.6553 241.862 76.1364V76.9091C241.862 77.5682 241.976 78.1269 242.203 78.5852C242.434 79.0398 242.754 79.3864 243.163 79.625C243.572 79.8598 244.048 79.9773 244.589 79.9773C244.942 79.9773 245.26 79.928 245.544 79.8295C245.832 79.7273 246.08 79.5758 246.288 79.375C246.497 79.1705 246.658 78.9167 246.771 78.6136L248.067 78.9773C247.93 79.4167 247.701 79.803 247.379 80.1364C247.057 80.4659 246.66 80.7235 246.186 80.9091C245.713 81.0909 245.18 81.1818 244.589 81.1818ZM250.243 81V72.2727H251.538V73.5909H251.629C251.788 73.1591 252.076 72.8087 252.493 72.5398C252.91 72.2708 253.379 72.1364 253.902 72.1364C254 72.1364 254.124 72.1383 254.271 72.142C254.419 72.1458 254.531 72.1515 254.607 72.1591V73.5227C254.561 73.5114 254.457 73.4943 254.294 73.4716C254.135 73.4451 253.966 73.4318 253.788 73.4318C253.364 73.4318 252.985 73.5208 252.652 73.6989C252.322 73.8731 252.061 74.1155 251.868 74.4261C251.679 74.733 251.584 75.0833 251.584 75.4773V81H250.243Z" fill="#0D0D0D"/>
<path d="M8.90771 48H252.138V53H8.90771V48Z" fill="#FF9F0D"/>
<g filter="url(#filter0_d_375_13192)">
<path d="M12.2461 55C15.1435 55 17.4923 52.5376 17.4923 49.5C17.4923 46.4624 15.1435 44 12.2461 44C9.34878 44 7 46.4624 7 49.5C7 52.5376 9.34878 55 12.2461 55Z" fill="white"/>
</g>
<g filter="url(#filter1_d_375_13192)">
<path d="M12.2451 52.5554C13.8547 52.5554 15.1596 51.1874 15.1596 49.4999C15.1596 47.8124 13.8547 46.4443 12.2451 46.4443C10.6354 46.4443 9.33057 47.8124 9.33057 49.4999C9.33057 51.1874 10.6354 52.5554 12.2451 52.5554Z" fill="#FF9F0D"/>
</g>
<g filter="url(#filter2_d_375_13192)">
<path d="M249.754 55C252.652 55 255.001 52.5376 255.001 49.5C255.001 46.4624 252.652 44 249.754 44C246.857 44 244.508 46.4624 244.508 49.5C244.508 52.5376 246.857 55 249.754 55Z" fill="white"/>
</g>
<g filter="url(#filter3_d_375_13192)">
<path d="M249.753 46.4443C250.33 46.4443 250.893 46.6235 251.373 46.9593C251.852 47.295 252.225 47.7723 252.446 48.3306C252.667 48.8889 252.724 49.5033 252.612 50.096C252.499 50.6887 252.222 51.2332 251.814 51.6605C251.407 52.0878 250.887 52.3788 250.322 52.4967C249.757 52.6146 249.171 52.5541 248.638 52.3229C248.105 52.0916 247.65 51.7 247.33 51.1975C247.01 50.695 246.839 50.1042 246.839 49.4999C246.839 48.6895 247.146 47.9123 247.693 47.3393C248.239 46.7663 248.98 46.4443 249.753 46.4443V46.4443Z" fill="#FF9F0D"/>
</g>
<defs>
<filter id="filter0_d_375_13192" x="0" y="37" width="24.4922" height="25" filterUnits="userSpaceOnUse" color-interpolation-filters="sRGB">
<feFlood flood-opacity="0" result="BackgroundImageFix"/>
<feColorMatrix in="SourceAlpha" type="matrix" values="0 0 0 0 0 0 0 0 0 0 0 0 0 0 0 0 0 0 127 0" result="hardAlpha"/>
<feOffset/>
<feGaussianBlur stdDeviation="3.5"/>
<feColorMatrix type="matrix" values="0 0 0 0 0.0862745 0 0 0 0 0.196078 0 0 0 0 0.619608 0 0 0 0.141 0"/>
<feBlend mode="normal" in2="BackgroundImageFix" result="effect1_dropShadow_375_13192"/>
<feBlend mode="normal" in="SourceGraphic" in2="effect1_dropShadow_375_13192" result="shape"/>
</filter>
<filter id="filter1_d_375_13192" x="2.33057" y="39.4443" width="19.8291" height="20.1111" filterUnits="userSpaceOnUse" color-interpolation-filters="sRGB">
<feFlood flood-opacity="0" result="BackgroundImageFix"/>
<feColorMatrix in="SourceAlpha" type="matrix" values="0 0 0 0 0 0 0 0 0 0 0 0 0 0 0 0 0 0 127 0" result="hardAlpha"/>
<feOffset/>
<feGaussianBlur stdDeviation="3.5"/>
<feColorMatrix type="matrix" values="0 0 0 0 0.0862745 0 0 0 0 0.196078 0 0 0 0 0.619608 0 0 0 0.141 0"/>
<feBlend mode="normal" in2="BackgroundImageFix" result="effect1_dropShadow_375_13192"/>
<feBlend mode="normal" in="SourceGraphic" in2="effect1_dropShadow_375_13192" result="shape"/>
</filter>
<filter id="filter2_d_375_13192" x="237.508" y="37" width="24.4922" height="25" filterUnits="userSpaceOnUse" color-interpolation-filters="sRGB">
<feFlood flood-opacity="0" result="BackgroundImageFix"/>
<feColorMatrix in="SourceAlpha" type="matrix" values="0 0 0 0 0 0 0 0 0 0 0 0 0 0 0 0 0 0 127 0" result="hardAlpha"/>
<feOffset/>
<feGaussianBlur stdDeviation="3.5"/>
<feColorMatrix type="matrix" values="0 0 0 0 0.0862745 0 0 0 0 0.196078 0 0 0 0 0.619608 0 0 0 0.141 0"/>
<feBlend mode="normal" in2="BackgroundImageFix" result="effect1_dropShadow_375_13192"/>
<feBlend mode="normal" in="SourceGraphic" in2="effect1_dropShadow_375_13192" result="shape"/>
</filter>
<filter id="filter3_d_375_13192" x="239.839" y="39.4443" width="19.8291" height="20.1111" filterUnits="userSpaceOnUse" color-interpolation-filters="sRGB">
<feFlood flood-opacity="0" result="BackgroundImageFix"/>
<feColorMatrix in="SourceAlpha" type="matrix" values="0 0 0 0 0 0 0 0 0 0 0 0 0 0 0 0 0 0 127 0" result="hardAlpha"/>
<feOffset/>
<feGaussianBlur stdDeviation="3.5"/>
<feColorMatrix type="matrix" values="0 0 0 0 0.0862745 0 0 0 0 0.196078 0 0 0 0 0.619608 0 0 0 0.141 0"/>
<feBlend mode="normal" in2="BackgroundImageFix" result="effect1_dropShadow_375_13192"/>
<feBlend mode="normal" in="SourceGraphic" in2="effect1_dropShadow_375_13192" result="shape"/>
</filter>
</defs>
</svg>
