<svg width="438" height="174" viewBox="0 0 438 174" fill="none" xmlns="http://www.w3.org/2000/svg">
<g filter="url(#filter0_d_308_10710)">
<path d="M8.5 8.5H429.5V165.5H8.5V8.5Z" stroke="#E0E0E0"/>
</g>
<path d="M69.2642 61V46.4545H78.8949V48.9901H72.3395V52.456H78.2557V54.9915H72.3395V61H69.2642ZM85.0348 61.2131C83.9316 61.2131 82.9775 60.9787 82.1726 60.5099C81.3724 60.0365 80.7545 59.3783 80.3189 58.5355C79.8833 57.688 79.6655 56.7055 79.6655 55.5881C79.6655 54.4612 79.8833 53.4763 80.3189 52.6335C80.7545 51.786 81.3724 51.1278 82.1726 50.6591C82.9775 50.1856 83.9316 49.9489 85.0348 49.9489C86.138 49.9489 87.0897 50.1856 87.8899 50.6591C88.6948 51.1278 89.3151 51.786 89.7507 52.6335C90.1863 53.4763 90.4041 54.4612 90.4041 55.5881C90.4041 56.7055 90.1863 57.688 89.7507 58.5355C89.3151 59.3783 88.6948 60.0365 87.8899 60.5099C87.0897 60.9787 86.138 61.2131 85.0348 61.2131ZM85.049 58.8693C85.5509 58.8693 85.9699 58.7273 86.3061 58.4432C86.6423 58.1544 86.8956 57.7614 87.0661 57.2642C87.2412 56.767 87.3288 56.2012 87.3288 55.5668C87.3288 54.9323 87.2412 54.3665 87.0661 53.8693C86.8956 53.3722 86.6423 52.9792 86.3061 52.6903C85.9699 52.4015 85.5509 52.2571 85.049 52.2571C84.5424 52.2571 84.1162 52.4015 83.7706 52.6903C83.4297 52.9792 83.1716 53.3722 82.9964 53.8693C82.826 54.3665 82.7408 54.9323 82.7408 55.5668C82.7408 56.2012 82.826 56.767 82.9964 57.2642C83.1716 57.7614 83.4297 58.1544 83.7706 58.4432C84.1162 58.7273 84.5424 58.8693 85.049 58.8693ZM95.397 46.4545V61H92.3714V46.4545H95.397ZM100.846 46.4545V61H97.8207V46.4545H100.846ZM108.199 61.2131C107.096 61.2131 106.142 60.9787 105.337 60.5099C104.536 60.0365 103.919 59.3783 103.483 58.5355C103.047 57.688 102.83 56.7055 102.83 55.5881C102.83 54.4612 103.047 53.4763 103.483 52.6335C103.919 51.786 104.536 51.1278 105.337 50.6591C106.142 50.1856 107.096 49.9489 108.199 49.9489C109.302 49.9489 110.254 50.1856 111.054 50.6591C111.859 51.1278 112.479 51.786 112.915 52.6335C113.35 53.4763 113.568 54.4612 113.568 55.5881C113.568 56.7055 113.35 57.688 112.915 58.5355C112.479 59.3783 111.859 60.0365 111.054 60.5099C110.254 60.9787 109.302 61.2131 108.199 61.2131ZM108.213 58.8693C108.715 58.8693 109.134 58.7273 109.47 58.4432C109.806 58.1544 110.06 57.7614 110.23 57.2642C110.405 56.767 110.493 56.2012 110.493 55.5668C110.493 54.9323 110.405 54.3665 110.23 53.8693C110.06 53.3722 109.806 52.9792 109.47 52.6903C109.134 52.4015 108.715 52.2571 108.213 52.2571C107.706 52.2571 107.28 52.4015 106.935 52.6903C106.594 52.9792 106.336 53.3722 106.161 53.8693C105.99 54.3665 105.905 54.9323 105.905 55.5668C105.905 56.2012 105.99 56.767 106.161 57.2642C106.336 57.7614 106.594 58.1544 106.935 58.4432C107.28 58.7273 107.706 58.8693 108.213 58.8693ZM117.414 61L114.445 50.0909H117.506L119.197 57.4205H119.296L121.058 50.0909H124.062L125.852 57.3778H125.944L127.606 50.0909H130.66L127.698 61H124.495L122.62 54.1392H122.485L120.61 61H117.414ZM145.944 46.4545H149.019V55.9006C149.019 56.9612 148.766 57.8892 148.259 58.6847C147.757 59.4801 147.054 60.1004 146.15 60.5455C145.246 60.9858 144.192 61.206 142.989 61.206C141.782 61.206 140.726 60.9858 139.822 60.5455C138.917 60.1004 138.214 59.4801 137.712 58.6847C137.21 57.8892 136.96 56.9612 136.96 55.9006V46.4545H140.035V55.6378C140.035 56.1918 140.156 56.6842 140.397 57.1151C140.643 57.5459 140.989 57.8845 141.434 58.1307C141.879 58.3769 142.397 58.5 142.989 58.5C143.586 58.5 144.104 58.3769 144.545 58.1307C144.99 57.8845 145.333 57.5459 145.575 57.1151C145.821 56.6842 145.944 56.1918 145.944 55.6378V46.4545ZM160.569 53.2017L157.799 53.3722C157.752 53.1354 157.65 52.9223 157.494 52.733C157.338 52.5388 157.132 52.3849 156.876 52.2713C156.625 52.1529 156.324 52.0938 155.974 52.0938C155.505 52.0938 155.11 52.1932 154.788 52.392C154.466 52.5862 154.305 52.8466 154.305 53.1733C154.305 53.4337 154.409 53.6539 154.618 53.8338C154.826 54.0137 155.183 54.1581 155.69 54.267L157.664 54.6648C158.725 54.8826 159.516 55.233 160.037 55.7159C160.557 56.1989 160.818 56.8333 160.818 57.6193C160.818 58.3343 160.607 58.9616 160.186 59.5014C159.769 60.0412 159.196 60.4626 158.467 60.7656C157.743 61.0639 156.907 61.2131 155.96 61.2131C154.516 61.2131 153.365 60.9124 152.508 60.3111C151.656 59.705 151.156 58.8812 151.01 57.8395L153.985 57.6832C154.075 58.1236 154.293 58.4598 154.639 58.6918C154.984 58.919 155.427 59.0327 155.967 59.0327C156.497 59.0327 156.923 58.9309 157.245 58.7273C157.572 58.5189 157.738 58.2514 157.743 57.9247C157.738 57.6501 157.622 57.4252 157.395 57.25C157.167 57.0701 156.817 56.9328 156.343 56.8381L154.454 56.4616C153.389 56.2486 152.596 55.8793 152.075 55.3537C151.559 54.8281 151.301 54.1581 151.301 53.3438C151.301 52.643 151.49 52.0393 151.869 51.5327C152.252 51.026 152.79 50.6354 153.481 50.3608C154.177 50.0862 154.992 49.9489 155.924 49.9489C157.302 49.9489 158.386 50.2401 159.177 50.8224C159.973 51.4048 160.437 52.1979 160.569 53.2017Z" fill="#333333"/>
<path d="M309 87.4948H257V134H309V87.4948Z" fill="#FAF7F2"/>
<path d="M373 87.4948H321V134H373V87.4948Z" fill="#FAF7F2"/>
<path d="M351.684 111.733L352.176 108.499H349.047V106.389C349.047 105.475 349.469 104.631 350.875 104.631H352.316V101.854C352.316 101.854 351.016 101.608 349.785 101.608C347.219 101.608 345.531 103.19 345.531 106.002V108.499H342.648V111.733H345.531V119.608H349.047V111.733H351.684Z" fill="#333333"/>
<path d="M117 87.4948H65V134H117V87.4948Z" fill="#FAF7F2"/>
<path d="M181 87.4948H129V134H181V87.4948Z" fill="#FAF7F2"/>
<path d="M245 87.4948H193V134H245V87.4948Z" fill="#FF9F0D"/>
<path d="M98.1367 106.952C98.8398 106.424 99.4727 105.792 99.9648 105.053C99.332 105.334 98.5938 105.545 97.8555 105.616C98.6289 105.159 99.1914 104.456 99.4727 103.577C98.7695 103.999 97.9609 104.315 97.1523 104.491C96.4492 103.752 95.5 103.331 94.4453 103.331C92.4062 103.331 90.7539 104.983 90.7539 107.022C90.7539 107.303 90.7891 107.584 90.8594 107.866C87.8008 107.69 85.0586 106.213 83.2305 103.999C82.9141 104.526 82.7383 105.159 82.7383 105.862C82.7383 107.127 83.3711 108.252 84.3906 108.92C83.793 108.885 83.1953 108.745 82.7031 108.463V108.499C82.7031 110.292 83.9688 111.768 85.6562 112.12C85.375 112.19 85.0234 112.26 84.707 112.26C84.4609 112.26 84.25 112.225 84.0039 112.19C84.4609 113.667 85.832 114.721 87.4492 114.756C86.1836 115.741 84.6016 116.338 82.8789 116.338C82.5625 116.338 82.2812 116.303 82 116.268C83.6172 117.323 85.5508 117.92 87.6602 117.92C94.4453 117.92 98.1367 112.331 98.1367 107.444C98.1367 107.268 98.1367 107.127 98.1367 106.952Z" fill="#333333"/>
<path d="M164.676 106.002C164.465 105.159 163.797 104.491 162.988 104.28C161.477 103.858 155.5 103.858 155.5 103.858C155.5 103.858 149.488 103.858 147.977 104.28C147.168 104.491 146.5 105.159 146.289 106.002C145.867 107.479 145.867 110.643 145.867 110.643C145.867 110.643 145.867 113.772 146.289 115.284C146.5 116.127 147.168 116.76 147.977 116.971C149.488 117.358 155.5 117.358 155.5 117.358C155.5 117.358 161.477 117.358 162.988 116.971C163.797 116.76 164.465 116.127 164.676 115.284C165.098 113.772 165.098 110.643 165.098 110.643C165.098 110.643 165.098 107.479 164.676 106.002ZM153.531 113.491V107.795L158.523 110.643L153.531 113.491Z" fill="#333333"/>
<path d="M228.219 110.608C228.219 105.792 224.316 101.889 219.5 101.889C214.684 101.889 210.781 105.792 210.781 110.608C210.781 114.334 213.066 117.463 216.301 118.729C216.23 118.061 216.16 117.006 216.336 116.233C216.512 115.565 217.355 111.909 217.355 111.909C217.355 111.909 217.109 111.381 217.109 110.608C217.109 109.413 217.812 108.499 218.691 108.499C219.43 108.499 219.781 109.061 219.781 109.729C219.781 110.467 219.289 111.592 219.043 112.647C218.867 113.491 219.5 114.194 220.344 114.194C221.891 114.194 223.086 112.577 223.086 110.221C223.086 108.112 221.574 106.67 219.465 106.67C216.969 106.67 215.527 108.534 215.527 110.432C215.527 111.206 215.809 112.014 216.16 112.436C216.23 112.506 216.23 112.612 216.23 112.682C216.16 112.963 215.984 113.561 215.984 113.667C215.949 113.842 215.844 113.877 215.668 113.807C214.578 113.28 213.91 111.698 213.91 110.397C213.91 107.655 215.914 105.124 219.676 105.124C222.699 105.124 225.055 107.303 225.055 110.186C225.055 113.174 223.156 115.6 220.52 115.6C219.641 115.6 218.797 115.143 218.516 114.581C218.516 114.581 218.094 116.268 217.988 116.655C217.777 117.428 217.25 118.377 216.898 118.94C217.707 119.221 218.586 119.327 219.5 119.327C224.316 119.327 228.219 115.424 228.219 110.608Z" fill="white"/>
<path d="M280.875 106.565C278.625 106.565 276.832 108.393 276.832 110.608C276.832 112.858 278.625 114.651 280.875 114.651C283.09 114.651 284.918 112.858 284.918 110.608C284.918 108.393 283.09 106.565 280.875 106.565ZM280.875 113.245C279.434 113.245 278.238 112.084 278.238 110.608C278.238 109.167 279.398 108.006 280.875 108.006C282.316 108.006 283.477 109.167 283.477 110.608C283.477 112.084 282.316 113.245 280.875 113.245ZM286.008 106.424C286.008 105.897 285.586 105.475 285.059 105.475C284.531 105.475 284.109 105.897 284.109 106.424C284.109 106.952 284.531 107.374 285.059 107.374C285.586 107.374 286.008 106.952 286.008 106.424ZM288.68 107.374C288.609 106.108 288.328 104.983 287.414 104.069C286.5 103.155 285.375 102.874 284.109 102.803C282.809 102.733 278.906 102.733 277.605 102.803C276.34 102.874 275.25 103.155 274.301 104.069C273.387 104.983 273.105 106.108 273.035 107.374C272.965 108.674 272.965 112.577 273.035 113.877C273.105 115.143 273.387 116.233 274.301 117.182C275.25 118.096 276.34 118.377 277.605 118.448C278.906 118.518 282.809 118.518 284.109 118.448C285.375 118.377 286.5 118.096 287.414 117.182C288.328 116.233 288.609 115.143 288.68 113.877C288.75 112.577 288.75 108.674 288.68 107.374ZM286.992 115.249C286.746 115.952 286.184 116.479 285.516 116.76C284.461 117.182 282 117.077 280.875 117.077C279.715 117.077 277.254 117.182 276.234 116.76C275.531 116.479 275.004 115.952 274.723 115.249C274.301 114.229 274.406 111.768 274.406 110.608C274.406 109.483 274.301 107.022 274.723 105.967C275.004 105.299 275.531 104.772 276.234 104.491C277.254 104.069 279.715 104.174 280.875 104.174C282 104.174 284.461 104.069 285.516 104.491C286.184 104.737 286.711 105.299 286.992 105.967C287.414 107.022 287.309 109.483 287.309 110.608C287.309 111.768 287.414 114.229 286.992 115.249Z" fill="#333333"/>
<defs>
<filter id="filter0_d_308_10710" x="0" y="0" width="438" height="174" filterUnits="userSpaceOnUse" color-interpolation-filters="sRGB">
<feFlood flood-opacity="0" result="BackgroundImageFix"/>
<feColorMatrix in="SourceAlpha" type="matrix" values="0 0 0 0 0 0 0 0 0 0 0 0 0 0 0 0 0 0 127 0" result="hardAlpha"/>
<feOffset/>
<feGaussianBlur stdDeviation="4"/>
<feColorMatrix type="matrix" values="0 0 0 0 0.164706 0 0 0 0 0.196078 0 0 0 0 0.658824 0 0 0 0.071 0"/>
<feBlend mode="normal" in2="BackgroundImageFix" result="effect1_dropShadow_308_10710"/>
<feBlend mode="normal" in="SourceGraphic" in2="effect1_dropShadow_308_10710" result="shape"/>
</filter>
</defs>
</svg>
